<svg id="Capa_1" data-name="Capa 1" xmlns="http://www.w3.org/2000/svg" viewBox="0 0 750 750"><defs><style>.cls-1{fill:#2970ca;}.cls-2{fill:#81b1e5;}</style></defs><title>fs_Imagotipo</title><path class="cls-1" d="M523.49,117.82s0,71.49,0,71.53A86.63,86.63,0,0,1,436.86,276H313.14a37.14,37.14,0,1,0,0,74.27H436.86a86.63,86.63,0,1,1,0,173.26l-123.73,0A37.14,37.14,0,0,0,276,560.62S276,655,276,655a296.4,296.4,0,0,0,99,17c164,0,297-133,297-297C672,265.08,612.24,169.18,523.49,117.82Z"/><path class="cls-2" d="M226.51,560.62A86.63,86.63,0,0,1,313.14,474H436.86a37.11,37.11,0,1,0,0-74.23l-123.73,0a86.63,86.63,0,0,1,0-173.26H436.9A37.14,37.14,0,0,0,474,189.36V95a296.39,296.39,0,0,0-99-17C211,78,78,211,78,375c0,109.92,59.76,205.81,148.51,257.17Z"/></svg>